<svg id="visual" viewBox="0 0 900 600" width="900" height="600" xmlns="http://www.w3.org/2000/svg" xmlns:xlink="http://www.w3.org/1999/xlink" version="1.1"><rect x="0" y="0" width="900" height="600" fill="#160812"></rect><path d="M0 223L15 228.8C30 234.7 60 246.3 90 261.8C120 277.3 150 296.7 180 310C210 323.3 240 330.7 270 322.7C300 314.7 330 291.3 360 287.8C390 284.3 420 300.7 450 297.2C480 293.7 510 270.3 540 263C570 255.7 600 264.3 630 269.2C660 274 690 275 720 265.2C750 255.3 780 234.7 810 234.8C840 235 870 256 885 266.5L900 277L900 601L885 601C870 601 840 601 810 601C780 601 750 601 720 601C690 601 660 601 630 601C600 601 570 601 540 601C510 601 480 601 450 601C420 601 390 601 360 601C330 601 300 601 270 601C240 601 210 601 180 601C150 601 120 601 90 601C60 601 30 601 15 601L0 601Z" fill="#b71a14"></path><path d="M0 348L15 348C30 348 60 348 90 345.5C120 343 150 338 180 347.7C210 357.3 240 381.7 270 378.3C300 375 330 344 360 343.2C390 342.3 420 371.7 450 373C480 374.3 510 347.7 540 347.2C570 346.7 600 372.3 630 372.7C660 373 690 348 720 334C750 320 780 317 810 316.7C840 316.3 870 318.7 885 319.8L900 321L900 601L885 601C870 601 840 601 810 601C780 601 750 601 720 601C690 601 660 601 630 601C600 601 570 601 540 601C510 601 480 601 450 601C420 601 390 601 360 601C330 601 300 601 270 601C240 601 210 601 180 601C150 601 120 601 90 601C60 601 30 601 15 601L0 601Z" fill="#a71913"></path><path d="M0 334L15 349.2C30 364.3 60 394.7 90 411.7C120 428.7 150 432.3 180 417.8C210 403.3 240 370.7 270 364.3C300 358 330 378 360 382.8C390 387.7 420 377.3 450 381.2C480 385 510 403 540 398C570 393 600 365 630 357.2C660 349.3 690 361.7 720 360.2C750 358.7 780 343.3 810 334.2C840 325 870 322 885 320.5L900 319L900 601L885 601C870 601 840 601 810 601C780 601 750 601 720 601C690 601 660 601 630 601C600 601 570 601 540 601C510 601 480 601 450 601C420 601 390 601 360 601C330 601 300 601 270 601C240 601 210 601 180 601C150 601 120 601 90 601C60 601 30 601 15 601L0 601Z" fill="#971813"></path><path d="M0 432L15 440.3C30 448.7 60 465.3 90 475.3C120 485.3 150 488.7 180 481.5C210 474.3 240 456.7 270 444.3C300 432 330 425 360 418.7C390 412.3 420 406.7 450 413.3C480 420 510 439 540 446.3C570 453.7 600 449.3 630 444.8C660 440.3 690 435.7 720 437.3C750 439 780 447 810 453.8C840 460.7 870 466.3 885 469.2L900 472L900 601L885 601C870 601 840 601 810 601C780 601 750 601 720 601C690 601 660 601 630 601C600 601 570 601 540 601C510 601 480 601 450 601C420 601 390 601 360 601C330 601 300 601 270 601C240 601 210 601 180 601C150 601 120 601 90 601C60 601 30 601 15 601L0 601Z" fill="#871612"></path><path d="M0 492L15 499.5C30 507 60 522 90 512.5C120 503 150 469 180 457.5C210 446 240 457 270 460.8C300 464.7 330 461.3 360 457.2C390 453 420 448 450 449.7C480 451.3 510 459.7 540 463.8C570 468 600 468 630 466.7C660 465.3 690 462.7 720 466.2C750 469.7 780 479.3 810 482.5C840 485.7 870 482.3 885 480.7L900 479L900 601L885 601C870 601 840 601 810 601C780 601 750 601 720 601C690 601 660 601 630 601C600 601 570 601 540 601C510 601 480 601 450 601C420 601 390 601 360 601C330 601 300 601 270 601C240 601 210 601 180 601C150 601 120 601 90 601C60 601 30 601 15 601L0 601Z" fill="#781510"></path><path d="M0 514L15 524.7C30 535.3 60 556.7 90 555.2C120 553.7 150 529.3 180 519.2C210 509 240 513 270 519C300 525 330 533 360 529.3C390 525.7 420 510.3 450 516.5C480 522.7 510 550.3 540 551.3C570 552.3 600 526.7 630 515C660 503.3 690 505.7 720 507C750 508.3 780 508.7 810 506C840 503.3 870 497.7 885 494.8L900 492L900 601L885 601C870 601 840 601 810 601C780 601 750 601 720 601C690 601 660 601 630 601C600 601 570 601 540 601C510 601 480 601 450 601C420 601 390 601 360 601C330 601 300 601 270 601C240 601 210 601 180 601C150 601 120 601 90 601C60 601 30 601 15 601L0 601Z" fill="#69140f"></path></svg>